<svg width="52" height="52" viewBox="0 0 52 52" fill="none" xmlns="http://www.w3.org/2000/svg">
<path d="M13.8125 31.6875L7.3125 30.0625C7.3125 30.0625 7.3125 25.1875 8.9375 20.3125C10.5625 15.4375 21.9375 15.4375 21.9375 15.4375M13.8125 31.6875L20.3125 38.1875M13.8125 31.6875C13.8125 31.6875 20.3125 15.4375 28.4375 10.5625C36.5625 5.6875 46.3125 5.6875 46.3125 5.6875C46.3125 5.6875 46.3125 15.4375 41.4375 23.5625C36.5625 31.6875 20.3125 38.1875 20.3125 38.1875M20.3125 38.1875L21.9375 44.6875C21.9375 44.6875 26.8125 44.6875 31.6875 43.0625C36.5625 41.4375 36.5625 30.0625 36.5625 30.0625" stroke="#F8F8F8" stroke-width="1.5" stroke-linecap="round" stroke-linejoin="round"/>
<path d="M5.6875 46.3125L12.1875 43.0625L8.9375 39.8125L5.6875 46.3125Z" fill="#F8F8F8" stroke="#F8F8F8" stroke-width="1.5" stroke-linecap="round" stroke-linejoin="round"/>
<path d="M33.3125 20.3125C34.21 20.3125 34.9375 19.585 34.9375 18.6875C34.9375 17.79 34.21 17.0625 33.3125 17.0625C32.415 17.0625 31.6875 17.79 31.6875 18.6875C31.6875 19.585 32.415 20.3125 33.3125 20.3125Z" fill="#F8F8F8" stroke="#F8F8F8" stroke-width="1.5" stroke-linecap="round" stroke-linejoin="round"/>
</svg>
